<?xml version="1.0" standalone="no"?>
<!DOCTYPE svg PUBLIC "-//W3C//DTD SVG 20010904//EN"
 "http://www.w3.org/TR/2001/REC-SVG-20010904/DTD/svg10.dtd">
<svg version="1.0" xmlns="http://www.w3.org/2000/svg"
 width="512.000000pt" height="512.000000pt" viewBox="0 0 512.000000 512.000000"
 preserveAspectRatio="xMidYMid meet">

<g transform="translate(0.000000,512.000000) scale(0.100000,-0.100000)"
fill="#000000" stroke="none">
<path d="M737 5104 c-422 -76 -737 -456 -737 -888 0 -271 135 -545 353 -718
l49 -38 -84 0 c-47 0 -107 -7 -137 -16 -133 -39 -211 -188 -167 -320 36 -108
119 -168 250 -180 88 -8 98 -17 143 -126 75 -185 68 -381 -20 -558 l-42 -85
-76 -7 c-91 -8 -132 -24 -183 -68 -59 -52 -80 -102 -81 -190 0 -64 4 -82 27
-121 56 -95 117 -128 259 -137 l98 -7 -64 -52 c-133 -108 -237 -269 -291 -449
-24 -79 -27 -105 -27 -239 0 -177 17 -256 88 -400 100 -204 273 -362 486 -445
164 -63 51 -60 2289 -60 1811 0 2042 2 2081 15 197 70 214 383 26 471 -40 18
-69 24 -124 24 l-73 0 -30 52 c-44 77 -79 198 -87 297 -8 117 15 229 70 341
l42 85 80 6 c95 8 121 17 169 60 62 54 81 101 81 199 0 75 -3 91 -28 132 -53
91 -113 118 -261 118 l-101 0 35 27 c175 136 293 313 346 523 26 103 26 316 0
415 -27 100 -77 213 -129 292 -43 65 -158 184 -222 231 l-30 21 100 1 c120 0
180 23 238 90 90 105 87 248 -7 348 -48 52 -101 74 -191 81 l-80 6 -42 85
c-55 112 -78 224 -70 341 8 99 43 220 87 297 l30 52 73 0 c166 0 268 110 255
277 -5 70 -29 124 -76 169 -70 68 36 64 -1634 64 -1495 0 -1508 0 -1528 -20
-13 -13 -20 -33 -20 -59 0 -77 -132 -71 1538 -71 1312 0 1497 -2 1522 -15 37
-19 50 -43 50 -95 0 -33 -6 -48 -29 -71 l-29 -29 -2024 0 c-1717 0 -2033 -3
-2091 -15 -256 -54 -441 -299 -424 -560 13 -189 121 -356 287 -444 122 -65
-28 -61 2196 -61 1453 0 2030 -3 2053 -11 62 -22 83 -123 37 -176 l-24 -28
-2069 0 -2068 0 -75 23 c-241 76 -416 241 -500 470 -151 413 75 856 502 983
68 21 100 23 466 28 374 6 394 7 408 25 21 29 18 82 -6 106 -19 19 -33 20
-387 19 -269 -1 -389 -5 -446 -15z m3860 -511 c-3 -10 -17 -45 -31 -79 -30
-71 -56 -211 -56 -298 0 -108 31 -242 85 -369 7 -16 -81 -17 -1892 -15 l-1898
3 -65 32 c-203 100 -283 330 -183 526 50 100 147 176 258 203 38 9 488 12
1919 13 1775 1 1868 0 1863 -16z m-152 -1325 c201 -69 369 -221 455 -412 84
-186 82 -424 -5 -614 -56 -123 -178 -258 -293 -325 -152 -88 -242 -107 -512
-107 l-200 0 0 99 0 99 213 5 c161 3 225 9 267 22 237 74 390 278 390 520 0
211 -116 398 -301 484 -46 22 -111 44 -143 50 -42 8 -671 11 -2078 11 l-2018
0 -30 28 c-44 40 -45 104 -4 146 l27 26 2076 -2 2076 -3 80 -27z m-60 -362
c117 -58 195 -165 218 -300 29 -168 -87 -357 -256 -416 -49 -17 -82 -20 -262
-20 l-205 0 0 155 0 155 104 0 c87 0 108 3 127 19 32 26 32 86 0 112 -22 18
-68 19 -1342 19 -1306 0 -1319 0 -1339 -20 -30 -30 -27 -83 6 -109 27 -21 32
-21 835 -21 l809 0 0 -155 0 -155 -1281 0 c-1216 0 -1281 1 -1274 18 112 261
112 473 0 735 -7 16 82 17 1896 15 l1904 -3 60 -29z m-655 -1072 l0 -645 -110
100 c-79 73 -116 101 -135 101 -26 0 -63 -29 -192 -154 l-63 -60 0 652 0 652
250 0 250 0 0 -646z m-660 76 l0 -100 -1425 0 -1425 0 -31 28 c-26 24 -32 36
-32 72 0 36 6 48 32 72 l31 28 1425 0 1425 0 0 -100z m0 -365 l0 -105 -1128 0
c-1009 0 -1134 -2 -1183 -16 -200 -60 -351 -223 -390 -422 -23 -121 3 -269 68
-379 42 -72 141 -164 215 -201 131 -64 67 -62 1435 -62 1230 0 1243 0 1263 20
27 27 27 83 0 110 -20 20 -33 20 -1238 20 -836 0 -1237 3 -1277 11 -161 30
-283 152 -315 316 -33 165 58 336 220 416 l65 32 1137 3 1138 2 0 -160 c0
-147 2 -162 20 -180 12 -12 33 -20 53 -20 27 1 54 21 182 139 l149 139 138
-130 c76 -72 141 -135 144 -139 10 -17 74 -9 94 11 18 18 20 33 20 180 l0 160
361 0 c340 0 361 -1 354 -17 -54 -127 -85 -261 -85 -369 0 -87 26 -227 56
-298 14 -34 28 -69 31 -79 5 -16 -21 -17 -459 -17 -356 0 -468 -3 -481 -13
-27 -19 -36 -67 -20 -99 7 -16 15 -29 16 -30 1 -1 285 -5 630 -8 l629 -5 24
-28 c33 -39 34 -108 0 -142 -13 -13 -39 -26 -57 -30 -19 -3 -947 -4 -2064 -3
-1945 3 -2033 4 -2095 22 -423 121 -655 534 -534 948 59 200 243 400 441 477
128 50 110 49 1316 50 l1127 1 0 -105z m1861 76 c54 -54 32 -151 -39 -170 -23
-7 -216 -11 -519 -11 l-483 0 0 105 0 105 506 0 506 0 29 -29z"/>
</g>
</svg>
